<?xml version="1.0" encoding="utf-8"?>
<svg viewBox="119.919 185.895 289.413 81.565" xmlns="http://www.w3.org/2000/svg">
  <g id="SvgjsG4485" featurekey="symbolContainer" transform="matrix(1.450347, 0, 0, 1.450347, 119.918648, 185.900726)" fill="#3ac73f" style="">
    <path xmlns="http://www.w3.org/2000/svg" d="M23.11 55.78L1.69 43.41A3.39 3.39 0 0 1 0 40.48V15.75a3.39 3.39 0 0 1 1.69-2.94L23.11.45a3.39 3.39 0 0 1 3.39 0l21.41 12.37a3.39 3.39 0 0 1 1.69 2.94v24.72a3.39 3.39 0 0 1-1.69 2.94L26.5 55.78a3.39 3.39 0 0 1-3.39 0z"/>
  </g>
  <g id="SvgjsG4486" featurekey="monogramFeature-0" transform="matrix(1.014424, 0, 0, 1.014424, 139.654617, 186.900574)" fill="#ffffff" style="">
    <path d="M8.886 59.943574 c-0.34383 0 -0.68694 -0.10441 -1.0523 -0.31559 l-5.2511 -3.0354 c-0.7302 -0.4224 -1.0518 -0.9798 -1.0518 -1.8234 l0 -33.01 c0 -0.8436 0.32162 -1.401 1.0518 -1.8234 l5.5158 -3.1884 c0.23039 -0.13858 0.49981 -0.21838 0.7878 -0.21838 c0.8448 0 1.53 0.6852 1.53 1.53 c0 0.57598 -0.31858 1.0776 -0.78894 1.3386 l-5.037 2.9112 l0 31.909 l4.296 2.4834 l4.296 -2.4834 l0 -9.2196 c0 -0.8448 0.6852 -1.53 1.53 -1.53 s1.53 0.6852 1.53 1.53 l0 9.7698 c0 0.8436 -0.32162 1.401 -1.0518 1.8234 l-5.2511 3.0354 c-0.36539 0.21117 -0.7092 0.31676 -1.0531 0.31676 z M20.53 60.0011719 l0.0036328 0.00052735 c-1.0092 0 -1.5312 -0.8886 -1.5312 -1.5378 l0.0072072 -20.915 l-8.5914 4.9661 l0 9.2196 c0 0.8448 -0.6852 1.53 -1.53 1.53 s-1.53 -0.6852 -1.53 -1.53 l0 -9.7704 c0 -0.8436 0.32162 -1.401 1.0518 -1.8234 l11.356 -6.567 c0.23338 -0.13441 0.49858 -0.20584 0.768 -0.20584 c0.8256 0 1.5276 0.678 1.5276 1.5294 l0.006621 20.92 l3.5082 -2.028 c0.23039 -0.13858 0.49981 -0.21838 0.7878 -0.21838 c0.8448 0 1.53 0.6852 1.53 1.53 c0 0.57598 -0.32279 1.0698 -0.78894 1.3392 l-5.8074 3.3546 c-0.23338 0.13441 -0.49858 0.20584 -0.768 0.20584 z M8.8812 36.429 c-1.0092 0 -1.5283 -0.8886 -1.5283 -1.5379 l0.0072072 -10.096 c0 -0.8448 0.6846 -1.53 1.5294 -1.53 s1.53 0.6852 1.53 1.53 l0 7.4508 l8.5914 -4.9661 l0 -5.8524 c0 -0.8448 0.6852 -1.53 1.53 -1.53 s1.53 0.6852 1.53 1.53 l0 6.4026 c0 0.8436 -0.32162 1.401 -1.0518 1.8234 l-11.37 6.57 c-0.23338 0.13441 -0.49858 0.20584 -0.768 0.20584 z M26.37 49.897 c-0.8448 0 -1.53 -0.6852 -1.53 -1.53 l0 -30.308 c0 -0.8448 0.6852 -1.53 1.53 -1.53 s1.53 0.6852 1.53 1.53 l0 30.308 c0 0.8448 -0.6852 1.53 -1.53 1.53 z"/>
  </g>
  <g id="SvgjsG4487" featurekey="nameFeature-0" transform="matrix(0.887469, 0, 0, 0.887469, 207.556854, 198.7276)" fill="#000000">
    <path d="M2 40 l0 -32 l4 0 l0 13.6 l4 0 l0 -13.6 l4 0 l0 32 l-4 0 l0 -15.2 l-4 0 l0 15.2 l-4 0 z M19.6 23.16 c0 -11.16 0.24 -15.56 6.24 -15.56 s6.24 4.4 6.24 15.56 c0 12.8 -0.24 17.24 -6.24 17.24 s-6.24 -4.44 -6.24 -17.24 z M23.6 23.16 c0 11.56 0 13.24 2.24 13.24 s2.24 -1.68 2.24 -13.24 c0 -10.4 0 -12.36 -2.24 -12.36 s-2.24 1.96 -2.24 12.36 z M36.88 30.240000000000002 l4.04 0 c0.08 5.16 0.48 6.16 1.92 6.16 c1.96 0 1.96 -1.64 1.96 -6 c0 -6.4 -7.92 -4.68 -7.92 -13.2 c0 -5 0 -9.6 6 -9.6 c4.44 0 5.64 2.52 5.92 8.56 l-4 0 c-0.16 -4.36 -0.64 -5.36 -1.92 -5.36 c-1.96 0 -1.96 2.16 -1.96 6.4 c0 6.2 7.96 4 7.96 13.2 c0 5.6 0 10 -6.04 10 c-4.64 0 -5.72 -2.76 -5.96 -10.16 z M52.48 11.600000000000001 l0 -3.6 l12 0 l0 3.6 l-4 0 l0 28.4 l-4 0 l0 -28.4 l-4 0 z M68.88 40 l0 -32 l3.6 0 l4.2 20 l0.4 0 l4.2 -20 l3.6 0 l0 32 l-4 0 l0 -16 l-2.84 16 l-2.4 0 l-2.76 -16 l0 16 l-4 0 z M90.88 40 l0 -16.8 c0 -11.16 0 -15.56 6 -15.56 s6 4.4 6 15.56 l0 16.8 l-4 0 l0 -9.2 l-4 0 l0 9.2 l-4 0 z M94.88 27.6 l4 0 l0 -4.4 c0 -10.4 0 -12.36 -2 -12.36 s-2 1.96 -2 12.36 l0 4.4 z M108.08 30.240000000000002 l4.04 0 c0.08 5.16 0.48 6.16 1.92 6.16 c1.96 0 1.96 -1.64 1.96 -6 c0 -6.4 -7.92 -4.68 -7.92 -13.2 c0 -5 0 -9.6 6 -9.6 c4.44 0 5.64 2.52 5.92 8.56 l-4 0 c-0.16 -4.36 -0.64 -5.36 -1.92 -5.36 c-1.96 0 -1.96 2.16 -1.96 6.4 c0 6.2 7.96 4 7.96 13.2 c0 5.6 0 10 -6.04 10 c-4.64 0 -5.72 -2.76 -5.96 -10.16 z M123.68 11.600000000000001 l0 -3.6 l12 0 l0 3.6 l-4 0 l0 28.4 l-4 0 l0 -28.4 l-4 0 z M140.08 40 l0 -32 l9.2 0 l0 3.2 l-5.2 0 l0 10.4 l4.4 0 l0 3.2 l-4.4 0 l0 11.2 l5.2 0 l0 4 l-9.2 0 z M154.08 40 l0 -32 l6.48 0 c4.12 0 5.52 2.52 5.52 7.36 c0 4.36 -0.52 6.84 -1.76 8.04 l0 0.24 c1.04 0.36 1.36 2.24 1.76 6.92 l0.8 9.44 l-4 0 l-0.52 -9.44 c-0.28 -4.76 -1 -5.76 -2.2 -5.76 l-2.08 0 l0 15.2 l-4 0 z M158.08 21.6 l2.48 0 c1.4 0 1.8 -1.4 1.8 -6.24 c0 -3.16 -0.6 -4.16 -1.8 -4.16 l-2.48 0 l0 10.4 z M172.08 40 l0 -32 l9.2 0 l0 3.2 l-5.2 0 l0 10.4 l4.4 0 l0 3.2 l-4.4 0 l0 11.2 l5.2 0 l0 4 l-9.2 0 z M186.08 37.96 c0 -1.52 0.52 -2.04 2.04 -2.04 s2.04 0.52 2.04 2.04 s-0.52 2.04 -2.04 2.04 s-2.04 -0.52 -2.04 -2.04 z M196.16000000000003 40 l0 -32 l3.6 0 l4.2 20 l0.4 0 l4.2 -20 l3.6 0 l0 32 l-4 0 l0 -16 l-2.84 16 l-2.4 0 l-2.76 -16 l0 16 l-4 0 z M218.16000000000003 40 l0 -32 l4 0 l0 28 l5.2 0 l0 4 l-9.2 0 z"/>
  </g>
  <g id="SvgjsG4488" featurekey="sloganFeature-0" transform="matrix(0.675419, 0, 0, 0.675419, 209.331787, 241.189819)" fill="#050505">
    <path d="M7.9 15.54 c0 1.4 -0.39336 2.4934 -1.18 3.28 s-1.88 1.18 -3.28 1.18 l-3.44 0 l0 -15 l2.98 0 c1.32 0 2.3366 0.32334 3.05 0.97 s1.07 1.6367 1.07 2.97 c0 0.56 -0.15334 1.0833 -0.46 1.57 s-0.67332 0.90332 -1.1 1.25 c0.68 0.44 1.2433 0.96666 1.69 1.58 s0.67 1.3467 0.67 2.2 z M5.78 8.94 c0 -0.73334 -0.2 -1.3434 -0.6 -1.83 s-0.98666 -0.73 -1.76 -0.73 l-2.04 0 l0 4.86 l2.24 0 c0.32 0 0.61 -0.06334 0.87 -0.19 s0.48666 -0.29332 0.68 -0.49998 s0.34334 -0.45 0.45 -0.73 s0.16 -0.57334 0.16 -0.88 z M6.56 15.620000000000001 c0 -0.96 -0.26664 -1.7033 -0.79998 -2.23 s-1.2733 -0.79 -2.22 -0.79 l-2.16 0 l0 5.98 l1.84 0 c0.46666 0 0.90332 -0.06 1.31 -0.18 s0.76 -0.3 1.06 -0.54 s0.53666 -0.54666 0.71 -0.92 s0.26 -0.81334 0.26 -1.32 z M19.8405 20 l-7.5 0 l0 -15 l7.36 0 l0 1.52 l-5.98 0 l0 5.16 l5.94 0 l0 1.3 l-5.94 0 l0 5.5 l6.12 0 l0 1.52 z M31.521 16.12 c0 1.2267 -0.3199 2.21 -0.9599 2.95 s-1.5933 1.11 -2.86 1.11 c-0.74666 0 -1.3767 -0.10666 -1.89 -0.32 s-0.93 -0.52 -1.25 -0.92 s-0.55 -0.88 -0.69 -1.44 s-0.20334 -1.1867 -0.19 -1.88 l0.02 -0.52 l1.54 0 c0 0.42666 0.01334 0.86332 0.04 1.31 s0.11332 0.85332 0.25998 1.22 s0.37332 0.66666 0.67998 0.9 s0.74666 0.35 1.32 0.35 c0.88 0 1.5267 -0.23334 1.94 -0.7 s0.62 -1.12 0.62 -1.96 c0 -0.66666 -0.16 -1.1933 -0.48 -1.58 s-0.72 -0.71332 -1.2 -0.97998 s-0.99666 -0.50666 -1.55 -0.72 s-1.07 -0.48 -1.55 -0.8 s-0.88 -0.73 -1.2 -1.23 s-0.48 -1.1633 -0.48 -1.99 c0 -1.3333 0.34334 -2.3434 1.03 -3.03 s1.6967 -1.03 3.03 -1.03 c0.62666 0 1.17 0.1 1.63 0.3 s0.84334 0.48 1.15 0.84 s0.53332 0.78666 0.67998 1.28 s0.22 1.04 0.22 1.64 l0 1.26 l-1.46 0 c0 -0.44 -0.0033398 -0.89666 -0.01 -1.37 s-0.07666 -0.90668 -0.21 -1.3 s-0.35668 -0.71668 -0.67002 -0.97002 s-0.77 -0.38 -1.37 -0.38 c-0.86666 0 -1.52 0.22 -1.96 0.66 s-0.64666 1.0867 -0.62 1.94 l0 0.2 c0.01334 0.41334 0.08334 0.75668 0.21 1.03 s0.3 0.50668 0.52 0.70002 s0.47666 0.36334 0.77 0.51 s0.61334 0.3 0.96 0.46 c0.50666 0.22666 1 0.46666 1.48 0.72 s0.90334 0.55 1.27 0.89 s0.66332 0.74 0.88998 1.2 s0.34 1.01 0.34 1.65 z M42.8415 6.460000000000001 l-3.1 0 l0 13.54 l-1.48 0 l0 -13.54 l-3.1 0 l0 -1.46 l7.68 0 l0 1.46 z M61.4025 6.5 l-5.78 0 l0 5.5 l5.68 0 l0 1.44 l-5.68 0 l0 6.56 l-1.5 0 l0 -15 l7.28 0 l0 1.5 z M74.723 20 l-1.72 -0.000019531 l-3.14 -6.06 l-2.6 0 l0 6.06 l-1.34 0 l0 -15 l3.44 0 c1.3733 0 2.46 0.39334 3.26 1.18 s1.2 1.8667 1.2 3.24 c0 0.42666 -0.05666 0.86 -0.17 1.3 s-0.27668 0.85334 -0.49002 1.24 s-0.47668 0.73666 -0.79002 1.05 s-0.67 0.55668 -1.07 0.73002 z M72.403 9.32 c0 -0.46666 -0.08 -0.88664 -0.24 -1.26 s-0.38 -0.69 -0.66 -0.95 s-0.61334 -0.46 -1 -0.6 s-0.80666 -0.21 -1.26 -0.21 l-1.98 0 l0 6.26 l2.1 0 c1.0667 0 1.84 -0.28666 2.32 -0.86 s0.72 -1.3667 0.72 -2.38 z M86.6635 20 l-7.5 0 l0 -15 l7.36 0 l0 1.52 l-5.98 0 l0 5.16 l5.94 0 l0 1.3 l-5.94 0 l0 5.5 l6.12 0 l0 1.52 z M98.924 20 l-7.5 0 l0 -15 l7.36 0 l0 1.52 l-5.98 0 l0 5.16 l5.94 0 l0 1.3 l-5.94 0 l0 5.5 l6.12 0 l0 1.52 z M124.70500000000001 5 l-3.44 15 l-1.28 0 l-2.5 -12.24 l-2.48 12.24 l-1.26 0 l-3.44 -15 l1.44 0 l2.52 12 l2.76 -11.96 l-0.02 -0.04 l0.02 0 l0.96 0 l0.11 0.49 c0.07334 0.32666 0.17 0.75332 0.29 1.28 s0.25666 1.1333 0.41 1.82 s0.31334 1.39 0.48 2.11 s0.33 1.4333 0.49 2.14 s0.30666 1.35 0.44 1.93 s0.24668 1.07 0.34002 1.47 s0.15334 0.65334 0.18 0.76 l2.52 -12 l1.46 0 z M136.2655 20 l-7.5 0 l0 -15 l7.36 0 l0 1.52 l-5.98 0 l0 5.16 l5.94 0 l0 1.3 l-5.94 0 l0 5.5 l6.12 0 l0 1.52 z M148.92600000000002 15.54 c0 1.4 -0.39336 2.4934 -1.18 3.28 s-1.88 1.18 -3.28 1.18 l-3.44 0 l0 -15 l2.98 0 c1.32 0 2.3366 0.32334 3.05 0.97 s1.07 1.6367 1.07 2.97 c0 0.56 -0.15334 1.0833 -0.46 1.57 s-0.67332 0.90332 -1.1 1.25 c0.68 0.44 1.2433 0.96666 1.69 1.58 s0.67 1.3467 0.67 2.2 z M146.806 8.94 c0 -0.73334 -0.2 -1.3434 -0.6 -1.83 s-0.98666 -0.73 -1.76 -0.73 l-2.04 0 l0 4.86 l2.24 0 c0.32 0 0.61 -0.06334 0.87 -0.19 s0.48666 -0.29332 0.68 -0.49998 s0.34334 -0.45 0.45 -0.73 s0.16 -0.57334 0.16 -0.88 z M147.586 15.620000000000001 c0 -0.96 -0.26664 -1.7033 -0.79998 -2.23 s-1.2733 -0.79 -2.22 -0.79 l-2.16 0 l0 5.98 l1.84 0 c0.46666 0 0.90332 -0.06 1.31 -0.18 s0.76 -0.3 1.06 -0.54 s0.53666 -0.54666 0.71 -0.92 s0.26 -0.81334 0.26 -1.32 z M168.127 20 l-1.52 0 l-0.02 -6.8 l-4.8 0 l0.02 6.8 l-1.5 0 l0 -15 l1.5 0 l-0.02 6.78 l4.8 0 l0.02 -6.78 l1.52 0 l0 15 z M180.8675 16.12 c0 1.4133 -0.31666 2.4434 -0.95 3.09 s-1.6633 0.97 -3.09 0.97 c-1.3067 0 -2.2634 -0.36 -2.87 -1.08 s-0.91 -1.7133 -0.91 -2.98 l0 -7.2 c0 -1.3733 0.32334 -2.3934 0.97 -3.06 s1.6633 -1 3.05 -1 c1.32 0 2.2834 0.35 2.89 1.05 s0.91 1.69 0.91 2.97 l0 7.24 z M179.4675 16.08 l-0.000019531 -7.22 c0 -0.76 -0.2 -1.3933 -0.6 -1.9 s-1.0067 -0.76 -1.82 -0.76 c-0.97334 0 -1.65 0.25334 -2.03 0.76 s-0.57 1.22 -0.57 2.14 l0 6.9 c0 0.38666 0.04334 0.75 0.13 1.09 s0.22666 0.63666 0.42 0.89 s0.44 0.45334 0.74 0.6 s0.66334 0.22 1.09 0.22 c0.93334 0 1.6067 -0.22666 2.02 -0.68 s0.62 -1.1333 0.62 -2.04 z M193.42800000000003 16.12 c0 1.2267 -0.3199 2.21 -0.9599 2.95 s-1.5933 1.11 -2.86 1.11 c-0.74666 0 -1.3767 -0.10666 -1.89 -0.32 s-0.93 -0.52 -1.25 -0.92 s-0.55 -0.88 -0.69 -1.44 s-0.20334 -1.1867 -0.19 -1.88 l0.02 -0.52 l1.54 0 c0 0.42666 0.01334 0.86332 0.04 1.31 s0.11332 0.85332 0.25998 1.22 s0.37332 0.66666 0.67998 0.9 s0.74666 0.35 1.32 0.35 c0.88 0 1.5267 -0.23334 1.94 -0.7 s0.62 -1.12 0.62 -1.96 c0 -0.66666 -0.16 -1.1933 -0.48 -1.58 s-0.72 -0.71332 -1.2 -0.97998 s-0.99666 -0.50666 -1.55 -0.72 s-1.07 -0.48 -1.55 -0.8 s-0.88 -0.73 -1.2 -1.23 s-0.48 -1.1633 -0.48 -1.99 c0 -1.3333 0.34334 -2.3434 1.03 -3.03 s1.6967 -1.03 3.03 -1.03 c0.62666 0 1.17 0.1 1.63 0.3 s0.84334 0.48 1.15 0.84 s0.53332 0.78666 0.67998 1.28 s0.22 1.04 0.22 1.64 l0 1.26 l-1.46 0 c0 -0.44 -0.0033398 -0.89666 -0.01 -1.37 s-0.07666 -0.90668 -0.21 -1.3 s-0.35668 -0.71668 -0.67002 -0.97002 s-0.77 -0.38 -1.37 -0.38 c-0.86666 0 -1.52 0.22 -1.96 0.66 s-0.64666 1.0867 -0.62 1.94 l0 0.2 c0.01334 0.41334 0.08334 0.75668 0.21 1.03 s0.3 0.50668 0.52 0.70002 s0.47666 0.36334 0.77 0.51 s0.61334 0.3 0.96 0.46 c0.50666 0.22666 1 0.46666 1.48 0.72 s0.90334 0.55 1.27 0.89 s0.66332 0.74 0.88998 1.2 s0.34 1.01 0.34 1.65 z M204.74850000000006 6.460000000000001 l-3.1 0 l0 13.54 l-1.48 0 l0 -13.54 l-3.1 0 l0 -1.46 l7.68 0 l0 1.46 z M210.90900000000005 20 l-1.5 0 l0 -15 l1.5 0 l0 15 z M224.18950000000004 20 l-1.56 0 l-5.2 -11.8 l0 11.8 l-1.44 0 l0 -15 l1.44 0 l5.22 11.3 l0.12 -11.3 l1.42 0 l0 15 z M236.89000000000007 16.12 c0 1.4 -0.31666 2.4266 -0.95 3.08 s-1.6567 0.98 -3.07 0.98 c-1.3067 0 -2.2634 -0.36 -2.87 -1.08 s-0.91 -1.7133 -0.91 -2.98 l0 -7.2 c0 -1.36 0.32 -2.3766 0.96 -3.05 s1.6467 -1.01 3.02 -1.01 c1.32 0 2.2866 0.35 2.9 1.05 s0.92 1.69 0.92 2.97 l0 1.24 l-1.42 0 c0 -0.48 -0.0033398 -0.96334 -0.01 -1.45 s-0.08 -0.92 -0.22 -1.3 s-0.38 -0.69 -0.72 -0.93 s-0.83666 -0.36 -1.49 -0.36 c-0.96 0 -1.6233 0.25 -1.99 0.75 s-0.55 1.1967 -0.55 2.09 l0 7.28 c0 0.86666 0.17666 1.53 0.53 1.99 s0.98334 0.69 1.89 0.69 s1.5667 -0.21666 1.98 -0.65 s0.62 -1.09 0.62 -1.97 l0 -2.66 l-2.98 -0.02 l0 -1.36 l4.36 0.02 l0 3.88 z"/>
  </g>
</svg>